
        <svg xmlns="http://www.w3.org/2000/svg" xmlns:xlink="http://www.w3.org/1999/xlink" version="1.1" width="3182.9268292682927" 
        height="1097.560975609756" viewBox="0 0 3182.9268292682927 1097.560975609756">
			
			<g transform="scale(9.146341463414634) translate(10, 10)">
				<defs id="SvgjsDefs6541"><linearGradient id="SvgjsLinearGradient6550"><stop id="SvgjsStop6551" stop-color="#8f5e25" offset="0"></stop><stop id="SvgjsStop6552" stop-color="#fbf4a1" offset="0.5"></stop><stop id="SvgjsStop6553" stop-color="#8f5e25" offset="1"></stop></linearGradient><linearGradient id="SvgjsLinearGradient6554"><stop id="SvgjsStop6555" stop-color="#8f5e25" offset="0"></stop><stop id="SvgjsStop6556" stop-color="#fbf4a1" offset="0.5"></stop><stop id="SvgjsStop6557" stop-color="#8f5e25" offset="1"></stop></linearGradient><linearGradient id="SvgjsLinearGradient6558"><stop id="SvgjsStop6559" stop-color="#8f5e25" offset="0"></stop><stop id="SvgjsStop6560" stop-color="#fbf4a1" offset="0.5"></stop><stop id="SvgjsStop6561" stop-color="#8f5e25" offset="1"></stop></linearGradient><linearGradient id="SvgjsLinearGradient6562"><stop id="SvgjsStop6563" stop-color="#8f5e25" offset="0"></stop><stop id="SvgjsStop6564" stop-color="#fbf4a1" offset="0.5"></stop><stop id="SvgjsStop6565" stop-color="#8f5e25" offset="1"></stop></linearGradient></defs><g id="SvgjsG6542" featureKey="symbolFeature-0" transform="matrix(0.8089843950578592,0,0,0.8089843950578592,-4.4494257454328245,9.550729327602802)" fill="url(#SvgjsLinearGradient6550)"><title xmlns="http://www.w3.org/2000/svg">Artboard 10</title><path xmlns="http://www.w3.org/2000/svg" d="M20.59766,83.41064c1.09863.958,2.12793,1.7832,3.14453,2.521A44.17426,44.17426,0,0,0,49.99316,94.5a39.90027,39.90027,0,0,0,4.35449-.22119,43.80257,43.80257,0,0,0,17.126-5.29248,44.57384,44.57384,0,0,0,22.35059-46.752c-.13184-.79395-.30371-1.61279-.52441-2.502-.002-.01562-.00488-.03076-.00781-.04639-.20483-.8866-.42651-1.70587-.67383-2.49854v-.001l-.00049-.001-.00342-.01166A44.69135,44.69135,0,0,0,76.27466,14.084l-.00537-.004A44.14166,44.14166,0,0,0,49.99316,5.5h-.55859A44.25694,44.25694,0,0,0,34.46,8.291l-.01477.0047-.04089.01239c-.28027.06836-.55957.16064-.82812.25488a7.23724,7.23724,0,0,0-1.30566.60645c-.0166.00635-.0332.01367-.04883.02148l-.06433.03278a44.51609,44.51609,0,0,0-11.55969,74.187ZM89.80493,40.446a3.07486,3.07486,0,0,0,1.70874,2.12982c-.23389.73572-.49536,1.49866-.79687,2.29187a48.14564,48.14564,0,0,1-6.371,11.60779,4.23547,4.23547,0,0,0-4.402-.1098,69.83571,69.83571,0,0,0-12.71509-12.487c-1.0448-2.76062-2.15259-5.38385-3.29614-7.7981a.44045.44045,0,0,0-.02637-.06934c-1.18506-2.509-2.4519-4.8985-3.77295-7.16949a38.85887,38.85887,0,0,0,2.938,2.57574.54045.54045,0,0,0,.07227.06934,42.17534,42.17534,0,0,0,26.15137,8.96631C89.467,40.45313,89.63452,40.44794,89.80493,40.446Zm.92847-.64716A2.0705,2.0705,0,0,1,91.811,37.99139c.17676.60345.34375,1.2196.49756,1.88019a.43161.43161,0,0,0,.01074.061c.17041.68207.30249,1.31378.41736,1.9306a2.06426,2.06426,0,0,1-1.991-1.94238l.00037-.00238-.0011-.00476C90.7428,39.87488,90.7334,39.83813,90.7334,39.79883Zm-8.68945,23.7168a3.35669,3.35669,0,1,1,3.35645-3.35645A3.36067,3.36067,0,0,1,82.04395,63.51563ZM70.82056,88.19891a42.81552,42.81552,0,0,1-16.39612,5.0639,36.89766,36.89766,0,0,1-7.96887-7.30731,5.58327,5.58327,0,0,0,1.82666-4.143,5.68919,5.68919,0,0,0-.05762-.787A72.68112,72.68112,0,0,0,72.38843,69.64209C73.071,77.11786,72.53784,83.51691,70.82056,88.19891ZM38.05566,82.53613a5.02392,5.02392,0,0,1-.05859-.72363,4.643,4.643,0,0,1,9.17163-1.02386l.00024.00531.001.00159a4.24788,4.24788,0,0,1,.1123,1.017A4.60448,4.60448,0,0,1,45.45117,85.501a4.63508,4.63508,0,0,1-7.39551-2.96484Zm1.25781-51.96338a4.64287,4.64287,0,1,1,4.44531,5.9873A4.62335,4.62335,0,0,1,39.11621,31.918,4.58424,4.58424,0,0,1,39.31348,30.57275ZM55.293,26.66064a4.3,4.3,0,0,0,2.02075-.52045,89.69,89.69,0,0,1,5.66187,10.24115.45685.45685,0,0,0,.02637.0708c.937,1.97443,1.84912,4.09637,2.72314,6.31647a84.48615,84.48615,0,0,0-7.355-4.79108,79.60236,79.60236,0,0,0-9.1958-4.56024,5.40467,5.40467,0,0,0-1.05347-5.03973c1.3031-1.17334,2.61646-2.24908,3.91626-3.208A4.33044,4.33044,0,0,0,55.293,26.66064ZM40.496,36.50092a5.59349,5.59349,0,0,0,8.33215-2.14386,78.6469,78.6469,0,0,1,9.041,4.48621,83.97373,83.97373,0,0,1,8.53467,5.66132c.20068.53241.40076,1.074.59033,1.62042a98.94752,98.94752,0,0,1,5.28772,22.3653A71.53061,71.53061,0,0,1,47.981,80.056a5.58555,5.58555,0,0,0-7.98657-3.20886,98.27239,98.27239,0,0,1-7.66846-15.90375,6.88953,6.88953,0,0,0,.54956-12.4295A70.2772,70.2772,0,0,1,40.496,36.50092ZM73.20386,67.78979A100.4379,100.4379,0,0,0,67.9375,45.79248c-.01343-.03845-.02832-.07623-.04187-.11469a68.02546,68.02546,0,0,1,11.2312,11.26794,4.28743,4.28743,0,0,0-.39209,6.01447A59.16941,59.16941,0,0,1,73.20386,67.78979ZM55.293,25.66064a3.35693,3.35693,0,1,1,3.35645-3.35693A3.36077,3.36077,0,0,1,55.293,25.66064Zm0-7.71387a4.3262,4.3262,0,0,0-1.73291.36389,35.6965,35.6965,0,0,1-2.73486-7.29114,33.83927,33.83927,0,0,1-.81226-4.51917,43.13559,43.13559,0,0,1,24.68042,7.6933,51.94349,51.94349,0,0,0-15.93481,5.4989A4.33788,4.33788,0,0,0,55.293,17.94678Zm-5.43652-6.68164a36.296,36.296,0,0,0,2.14673,6.08875c-.4397-.4964-.87158-.96625-1.302-1.41541C46.32349,11.37714,41.974,8.7099,38.08167,8.15753A43.33763,43.33763,0,0,1,49.00586,6.51465,34.71411,34.71411,0,0,0,49.85645,11.26514Zm-17.209-1.16748L32.651,10.096c.0116-.00421.02356-.0083.03455-.01349.65356-.28876,1.3313-.55267,2.0033-.81708l.01135-.00323c.0127-.00342.03223-.00928.05273-.01611,4.28809-1.00244,9.69629,1.62158,15.22656,7.38428.73987.77264,1.49219,1.62372,2.27771,2.5578A4.27661,4.27661,0,0,0,51.468,24.3465c-1.3429.98969-2.69971,2.10083-4.04517,3.31323a5.59,5.59,0,0,0-8.89221,2.17908,61.67168,61.67168,0,0,0-8.84509-1.59332,4.30668,4.30668,0,0,0-3.584-4.066C26.81445,17.1438,29.11108,12.15857,32.64746,10.09766ZM25.34863,25.08984H25.375a1.06009,1.06009,0,0,1,.12769.0094l.0061.00183.01733.00073.0022.00024a3.34452,3.34452,0,0,1,3.17676,3.34473,1.51247,1.51247,0,0,1-.00989.19409l-.00085.00269.00037.00323-.00134.01532a3.355,3.355,0,0,1-6.70215-.12549v-.08984A3.36077,3.36077,0,0,1,25.34863,25.08984ZM29.61157,29.243a60.6222,60.6222,0,0,1,8.62891,1.55481A5.52367,5.52367,0,0,0,39.72632,35.862,71.26923,71.26923,0,0,0,31.9574,48.11139a6.91984,6.91984,0,0,0-3.69495-.28308,84.28123,84.28123,0,0,1-2.303-15.08527A4.33238,4.33238,0,0,0,29.61157,29.243ZM28.02539,48.89063a5.46917,5.46917,0,0,1,1.57813-.22266A5.78619,5.78619,0,0,1,32,49.17822a5.93357,5.93357,0,1,1-3.97461-.2876ZM27.844,61.26886a6.90129,6.90129,0,0,0,1.75952.25507,6.79119,6.79119,0,0,0,1.7771-.25391,99.30177,99.30177,0,0,0,7.77319,16.12109,5.63985,5.63985,0,0,0-2.15674,4.42139c0,.11853.02.2334.02832.3512a82.51014,82.51014,0,0,1-12.47241.559A82.18822,82.18822,0,0,1,27.844,61.26886ZM23.5249,84.507c-.36816-.28217-.74243-.57648-1.12073-.887.37659.0224.7511.04858,1.1283.06531C23.52942,83.95813,23.5249,84.23071,23.5249,84.507Zm1.009.75848c-.00537-.23865-.00952-.47961-.00952-.71466,0-.27753.00488-.55328.00793-.82867.84265.02539,1.68884.043,2.53894.043A83.77982,83.77982,0,0,0,37.184,83.15442a5.57713,5.57713,0,0,0,8.46777,3.39966,40.16274,40.16274,0,0,0,7.18665,6.84149c-.908.06207-1.84009.10443-2.84521.10443A43.17588,43.17588,0,0,1,24.53394,85.26544ZM72.12134,87.436c1.5144-4.83038,1.939-11.16693,1.21252-18.48181a60.116,60.116,0,0,0,6.12732-5.30585,4.26425,4.26425,0,0,0,4.38916.46344,37.23535,37.23535,0,0,1,3.40894,8.34064A43.70065,43.70065,0,0,1,72.12134,87.436ZM87.943,71.24213a38.89225,38.89225,0,0,0-3.24011-7.657,4.32371,4.32371,0,0,0,.43091-6.49231,49.18144,49.18144,0,0,0,6.51855-11.87115c.31274-.824.585-1.61908.82813-2.38434a3.00285,3.00285,0,0,0,.32422.03278c.03931,0,.06616-.0094.10376-.0105a44.082,44.082,0,0,1,.59155,7.134A43.49885,43.49885,0,0,1,87.943,71.24213Zm3.56995-34.22668a3.07508,3.07508,0,0,0-1.75,2.43127c-.1543.00171-.30078.0069-.468.00641a41.18455,41.18455,0,0,1-25.458-8.69238.47.47,0,0,0-.07422-.07178,37.36316,37.36316,0,0,1-5.44678-5.25952,4.316,4.316,0,0,0,.95886-4.87854,50.86252,50.86252,0,0,1,16.56995-5.53741A43.7044,43.7044,0,0,1,91.51294,37.01544ZM29.26257,11.75684c-2.19934,2.746-3.61707,6.9325-4.15979,12.35785a4.33772,4.33772,0,0,0-4.0741,3.96167,35.11538,35.11538,0,0,0-9.66492,1.92035A43.65919,43.65919,0,0,1,29.26257,11.75684ZM10.71484,31.28839a33.36933,33.36933,0,0,1,10.343-2.211A4.3826,4.3826,0,0,0,24.959,32.75714a85.229,85.229,0,0,0,2.33923,15.33813,6.88587,6.88587,0,0,0-.40173,12.85242,83.1658,83.1658,0,0,0-3.343,21.73755c-.80957-.03638-1.61877-.0813-2.41992-.1402a43.552,43.552,0,0,1-10.4187-51.25665Z"></path><path xmlns="http://www.w3.org/2000/svg" d="M29.60352,59.04932a4.35693,4.35693,0,1,0-4.35645-4.35693A4.36239,4.36239,0,0,0,29.60352,59.04932Zm0-7.71387a3.35693,3.35693,0,1,1-3.35645,3.35693A3.36077,3.36077,0,0,1,29.60352,51.33545Z"></path></g><g id="SvgjsG6543" featureKey="textGroupContainer" transform="matrix(1,0,0,1,327,0)" fill="url(#SvgjsLinearGradient6554)"><rect xmlns="http://www.w3.org/2000/svg" y="0" height="1" width="1" opacity="0"></rect><rect xmlns="http://www.w3.org/2000/svg" y="0" x="-235" width="5" height="100"></rect></g><g id="SvgjsG6544" featureKey="nameFeature-0" transform="matrix(2.002402938523868,0,0,2.002402938523868,108.19783811918462,13.386060664993261)" fill="url(#SvgjsLinearGradient6558)"><path d="M12.96 18.5 c-1.24 1.12 -2.9 1.7 -4.76 1.7 c-3.92 0 -7.3 -2.94 -7.3 -7.2 s3.38 -7.2 7.3 -7.2 c1.84 0 3.48 0.6 4.68 1.66 l-1.76 1.98 c-0.74 -0.52 -1.74 -0.9 -2.76 -0.9 c-2.52 0 -4.42 1.86 -4.42 4.46 s1.9 4.46 4.42 4.46 c1.06 0 2.1 -0.4 2.86 -1 z M28.04 12.559999999999999 c0.62 4.7 -2.44 7.64 -6.22 7.64 c-3.98 0 -7.26 -2.94 -7.26 -7.2 s3.36 -7.2 7.26 -7.2 c1.86 0 3.5 0.6 4.7 1.66 l-1.76 1.98 c-0.74 -0.52 -1.74 -0.9 -2.76 -0.9 c-2.54 0 -4.4 1.86 -4.4 4.46 s1.8 4.46 4.22 4.46 c1.84 0 3.12 -0.66 3.52 -2.42 l-3.3 0 l0 -2.48 l6 0 z M35.34 6 l0 14 l-2.92 0 l0 -11.52 l-2.38 0 l0 -2.48 l5.3 0 z M40.9 6 l0 14 l-2.92 0 l0 -14 l2.92 0 z M58.3 6 l0 14 l-3 0 l0 -7.44 l-3.26 7.44 l-2.52 0 l-3.22 -7.4 l0 7.4 l-3 0 l0 -14 l2.88 0 l4.62 10.1 l4.62 -10.1 l2.88 0 z M71.88 20 l-1.06 -2.5 l-6.76 0 l-1.06 2.5 l-3.1 0 l6.22 -14 l2.64 0 l6.24 14 l-3.12 0 z M65.08 15.120000000000001 l4.72 0 l-2.36 -5.54 z M89.78 12.559999999999999 c0.62 4.7 -2.44 7.64 -6.22 7.64 c-3.98 0 -7.26 -2.94 -7.26 -7.2 s3.36 -7.2 7.26 -7.2 c1.86 0 3.5 0.6 4.7 1.66 l-1.76 1.98 c-0.74 -0.52 -1.74 -0.9 -2.76 -0.9 c-2.54 0 -4.4 1.86 -4.4 4.46 s1.8 4.46 4.22 4.46 c1.84 0 3.12 -0.66 3.52 -2.42 l-3.3 0 l0 -2.48 l6 0 z M94.86000000000001 17.32 l5.92 0 l0 2.68 l-6.32 0 l-2.52 0 l0 -14 l2.92 0 l5.74 0 l0 2.68 l-5.74 0 l0 2.96 l4.34 0 l0 2.64 l-4.34 0 l0 3.04 z"></path></g><g id="SvgjsG6545" featureKey="sloganFeature-0" transform="matrix(0.6991173624630457,0,0,0.6991173624630457,109.16105904836655,60.75609719833939)" fill="url(#SvgjsLinearGradient6562)"><path d="M14.98 7 l-1.4 1.64 q-0.82 -0.84 -1.96 -1.32 t-2.4 -0.48 q-1.64 0 -2.99 0.74 t-2.11 2.02 q-0.78 1.34 -0.78 2.98 q0 1.56 0.84 2.88 q0.8 1.24 2.15 1.97 t2.91 0.73 q1.44 0 2.68 -0.62 t2.06 -1.72 l1.34 1.82 q-1.14 1.28 -2.73 1.99 t-3.37 0.71 q-2.22 0 -4.08 -1.08 q-1.82 -1.04 -2.86 -2.86 q-1.08 -1.86 -1.08 -4.08 q0 -2.14 1.14 -3.94 q1.08 -1.72 2.93 -2.73 t3.97 -1.01 q1.66 0 3.16 0.64 q1.46 0.6 2.58 1.72 z M31.42 12.440000000000001 q0 -1.6 -0.82 -2.9 q-0.78 -1.26 -2.13 -1.98 t-2.93 -0.72 q-1.64 0 -2.99 0.74 t-2.11 2.02 q-0.78 1.34 -0.78 2.98 q0 1.56 0.84 2.88 q0.8 1.24 2.15 1.97 t2.92 0.73 t2.92 -0.76 t2.13 -2.04 q0.8 -1.34 0.8 -2.92 z M33.58 12.559999999999999 q0 2.16 -1.12 3.98 q-1.08 1.74 -2.93 2.77 t-3.99 1.03 q-2.22 0 -4.08 -1.08 q-1.82 -1.04 -2.86 -2.86 q-1.08 -1.86 -1.08 -4.08 q0 -2.14 1.14 -3.94 q1.08 -1.72 2.93 -2.73 t3.97 -1.01 q2.18 0 4.04 1.06 q1.82 1.04 2.88 2.82 q1.1 1.86 1.1 4.04 z M39.96 7.279999999999999 l0 10.54 l3.38 0 q1.4 0 2.52 -0.72 q1.06 -0.7 1.66 -1.88 t0.6 -2.58 q0 -1.46 -0.57 -2.68 t-1.63 -1.94 q-1.14 -0.74 -2.62 -0.74 l-3.34 0 z M36.64 7.279999999999999 l-0.96 -2.2 l7.6 0 q1.98 0 3.62 1.02 q1.58 0.98 2.5 2.68 t0.92 3.7 q0 1.5 -0.59 2.97 t-1.63 2.57 q-1 1.08 -2.14 1.54 q-1.1 0.44 -2.62 0.44 l-5.52 0 l0 -12.72 l-1.18 0 z M55.900000000000006 14.02 l0 3.8 l9.2 0 l0 2.18 l-11.38 0 l0 -14.92 l10.5 0 l0 2.2 l-8.32 0 l0 4.52 q0.62 -0.36 1.38 -0.48 q0.56 -0.1 1.44 -0.1 l3.26 0 l0 2.22 l-3.26 0 q-0.82 0 -1.44 0.1 q-0.76 0.14 -1.38 0.48 z M70.78 7.26 l0 4.96 q0.62 -0.36 1.38 -0.48 q0.56 -0.1 1.44 -0.1 l2.84 0 q1.18 0 1.84 -0.54 q0.7 -0.58 0.7 -1.74 q0 -1.1 -0.74 -1.64 q-0.64 -0.46 -1.8 -0.46 l-5.66 0 z M77.16000000000001 17.64 l-1.82 -3.82 l-1.74 0 q-0.82 0 -1.44 0.1 q-0.76 0.14 -1.38 0.48 l0 5.6 l-2.18 0 l0 -14.92 l7.84 0 q1.38 0 2.44 0.52 t1.64 1.48 q0.62 1.02 0.62 2.4 q0 1.68 -0.9 2.76 t-2.54 1.5 l1.16 2.38 q0.5 0.74 0.78 1.04 q0.34 0.38 0.65 0.51 t0.81 0.13 l0.22 0 l0.48 -0.02 l0 2.22 q-1.16 0 -1.72 -0.08 q-0.94 -0.16 -1.6 -0.62 q-0.78 -0.56 -1.32 -1.66 z M101.92 7.279999999999999 l-5.26 0 l0 12.72 l-2.12 0 l0 -12.72 l-5.32 0 l0 -2.2 l12.7 0 l0 2.2 z M106.9 14.02 l0 3.8 l9.2 0 l0 2.18 l-11.38 0 l0 -14.92 l10.5 0 l0 2.2 l-8.32 0 l0 4.52 q0.62 -0.36 1.38 -0.48 q0.56 -0.1 1.44 -0.1 l3.26 0 l0 2.22 l-3.26 0 q-0.82 0 -1.44 0.1 q-0.76 0.14 -1.38 0.48 z M132.38 7 l-1.4 1.64 q-0.82 -0.84 -1.96 -1.32 t-2.4 -0.48 q-1.64 0 -2.99 0.74 t-2.11 2.02 q-0.78 1.34 -0.78 2.98 q0 1.56 0.84 2.88 q0.8 1.24 2.15 1.97 t2.91 0.73 q1.44 0 2.68 -0.62 t2.06 -1.72 l1.34 1.82 q-1.14 1.28 -2.73 1.99 t-3.37 0.71 q-2.22 0 -4.08 -1.08 q-1.82 -1.04 -2.86 -2.86 q-1.08 -1.86 -1.08 -4.08 q0 -2.14 1.14 -3.94 q1.08 -1.72 2.93 -2.73 t3.97 -1.01 q1.66 0 3.16 0.64 q1.46 0.6 2.58 1.72 z M138.08 13.4 l0 6.6 l-2.16 0 l0 -14.92 l2.16 0 l0 6.12 q0.8 -0.4 1.9 -0.4 q0.4 0 1.94 0.18 q2.16 0.26 2.92 0.26 q1.16 0 2.02 -0.38 l0 -5.78 l2.18 0 l0 14.92 l-2.18 0 l0 -6.94 q-0.86 0.38 -2.02 0.38 q-0.76 0 -2.92 -0.26 q-1.54 -0.18 -1.94 -0.18 q-1.1 0 -1.9 0.4 z M153.88 7.18 l-1.74 -2.1 l2.82 0 l9.58 11.4 l0 -11.4 l2.2 0 l0 14.92 l-2.16 0 l-8.56 -10.26 l0 10.26 l-2.14 0 l0 -12.82 z M173.28 20 l-2.14 0 l0 -14.92 l2.14 0 l0 14.92 z M190.45999999999998 7 l-1.4 1.64 q-0.82 -0.84 -1.96 -1.32 t-2.4 -0.48 q-1.64 0 -2.99 0.74 t-2.11 2.02 q-0.78 1.34 -0.78 2.98 q0 1.56 0.84 2.88 q0.8 1.24 2.15 1.97 t2.91 0.73 q1.44 0 2.68 -0.62 t2.06 -1.72 l1.34 1.82 q-1.14 1.28 -2.73 1.99 t-3.37 0.71 q-2.22 0 -4.08 -1.08 q-1.82 -1.04 -2.86 -2.86 q-1.08 -1.86 -1.08 -4.08 q0 -2.14 1.14 -3.94 q1.08 -1.72 2.93 -2.73 t3.97 -1.01 q1.66 0 3.16 0.64 q1.46 0.6 2.58 1.72 z M196.14 20 l-2.14 0 l0 -14.92 l2.14 0 l0 14.92 z M205.2 6.66 l-0.82 -1.84 l2.4 0 l7.18 15.18 l-2.44 0 l-0.98 -2.18 l-4.54 0 q-1.28 0 -2.3 0.24 q-0.9 0.22 -1.5 0.58 q-0.54 0.32 -0.72 0.66 l-0.38 0.7 l-2.36 0 z M206.79999999999998 15.620000000000001 l2.76 0 l-3.26 -6.3 l-3.3 7.14 q0.44 -0.38 1.34 -0.6 q1.02 -0.24 2.46 -0.24 z M217.19999999999996 7.18 l-1.74 -2.1 l2.82 0 l9.58 11.4 l0 -11.4 l2.2 0 l0 14.92 l-2.16 0 l-8.56 -10.26 l0 10.26 l-2.14 0 l0 -12.82 z"></path></g>
			</g>
		</svg>
	