<?xml version="1.0" encoding="UTF-8"?>
<svg id="Layer_1" data-name="Layer 1" xmlns="http://www.w3.org/2000/svg" width="2203" height="850" version="1.1" xmlns:xlink="http://www.w3.org/1999/xlink" viewBox="0 0 2203 850">
  <defs>
    <style>
      .cls-1 {
        fill: url(#linear-gradient);
      }

      .cls-1, .cls-2, .cls-3, .cls-4, .cls-5 {
        stroke-width: 0px;
      }

      .cls-2, .cls-6 {
        fill: #000;
      }

      .cls-6 {
        font-family: UniwarsSb-Regular, Uniwars;
        font-size: 97.1px;
      }

      .cls-3 {
        fill: url(#linear-gradient-21);
      }

      .cls-7 {
        fill: url(#linear-gradient-9);
        stroke: url(#linear-gradient-10);
      }

      .cls-7, .cls-8, .cls-9, .cls-10, .cls-11, .cls-12, .cls-13, .cls-14, .cls-15, .cls-16, .cls-17, .cls-18 {
        stroke-miterlimit: 10;
      }

      .cls-8 {
        fill: url(#linear-gradient-19);
        stroke: url(#linear-gradient-20);
      }

      .cls-9 {
        fill: url(#linear-gradient-3);
        stroke: url(#linear-gradient-4);
      }

      .cls-19 {
        fill: #f40808;
        font-family: UniwarsSb-Italic, Uniwars;
        font-size: 254.5px;
        font-style: italic;
      }

      .cls-10 {
        fill: url(#linear-gradient-7);
        stroke: url(#linear-gradient-8);
      }

      .cls-4 {
        fill: url(#linear-gradient-22);
      }

      .cls-11 {
        fill: url(#linear-gradient-11);
        stroke: url(#linear-gradient-12);
      }

      .cls-5 {
        fill: url(#linear-gradient-2);
      }

      .cls-12 {
        fill: url(#linear-gradient-23);
        stroke: url(#linear-gradient-24);
      }

      .cls-13 {
        fill: url(#linear-gradient-27);
        stroke: url(#linear-gradient-28);
      }

      .cls-14 {
        fill: url(#linear-gradient-15);
        stroke: url(#linear-gradient-16);
      }

      .cls-15 {
        fill: url(#linear-gradient-25);
        stroke: url(#linear-gradient-26);
      }

      .cls-16 {
        fill: url(#linear-gradient-13);
        stroke: url(#linear-gradient-14);
      }

      .cls-17 {
        fill: url(#linear-gradient-5);
        stroke: url(#linear-gradient-6);
      }

      .cls-18 {
        fill: url(#linear-gradient-17);
        stroke: url(#linear-gradient-18);
      }
    </style>
    <linearGradient id="linear-gradient" x1="-58.9" y1="1292" x2="2420.7" y2="1292" gradientTransform="translate(-384.3 -298.2) rotate(-21.5) scale(.9 1)" gradientUnits="userSpaceOnUse">
      <stop offset="0" stop-color="#fff"/>
      <stop offset=".3" stop-color="#9f9f9f"/>
      <stop offset=".7" stop-color="#494949"/>
      <stop offset=".9" stop-color="#141414"/>
      <stop offset="1" stop-color="#000"/>
    </linearGradient>
    <linearGradient id="linear-gradient-2" x1="60.6" y1="1036.6" x2="1423.6" y2="1036.6" xlink:href="#linear-gradient"/>
    <linearGradient id="linear-gradient-3" x1="1.4" y1="1121.2" x2="1961.9" y2="1121.2" gradientTransform="translate(-384.3 -298.2) rotate(-21.5) scale(.9 1)" gradientUnits="userSpaceOnUse">
      <stop offset="0" stop-color="#ffab15"/>
      <stop offset="0" stop-color="#f59d14"/>
      <stop offset=".5" stop-color="#b6490e"/>
      <stop offset=".8" stop-color="#8e140b"/>
      <stop offset="1" stop-color="#7f000a"/>
    </linearGradient>
    <linearGradient id="linear-gradient-4" x1="2.2" x2="1940.3" xlink:href="#linear-gradient-3"/>
    <linearGradient id="linear-gradient-5" x1="-18.8" y1="1065.3" x2="2178.9" y2="1065.3" xlink:href="#linear-gradient-3"/>
    <linearGradient id="linear-gradient-6" x1="-20.6" y1="1065.3" x2="2187.8" y2="1065.3" xlink:href="#linear-gradient-3"/>
    <linearGradient id="linear-gradient-7" x1="-43.4" y1="1009.2" x2="2318.5" y2="1009.2" xlink:href="#linear-gradient-3"/>
    <linearGradient id="linear-gradient-8" x1="-44.8" y1="1009.2" x2="2320.9" y2="1009.2" xlink:href="#linear-gradient-3"/>
    <linearGradient id="linear-gradient-9" x1="-58.4" y1="912.2" x2="2363.6" y2="912.2" xlink:href="#linear-gradient-3"/>
    <linearGradient id="linear-gradient-10" x1="-49.3" y1="912.1" x2="2329.3" y2="912.1" xlink:href="#linear-gradient-3"/>
    <linearGradient id="linear-gradient-11" x1="-41.9" y1="874" x2="2371.1" y2="874" xlink:href="#linear-gradient-3"/>
    <linearGradient id="linear-gradient-12" x1="-28.7" y1="874" x2="2337.4" y2="874" xlink:href="#linear-gradient-3"/>
    <linearGradient id="linear-gradient-13" x1="-62.6" y1="848.4" x2="2478.9" y2="848.4" xlink:href="#linear-gradient-3"/>
    <linearGradient id="linear-gradient-14" x1="-47.1" y1="848.4" x2="2450.9" y2="848.4" xlink:href="#linear-gradient-3"/>
    <linearGradient id="linear-gradient-15" x1="-118.1" y1="856.8" x2="2614.2" y2="856.8" xlink:href="#linear-gradient-3"/>
    <linearGradient id="linear-gradient-16" x1="-104.7" y1="856.8" x2="2597.8" y2="856.8" xlink:href="#linear-gradient-3"/>
    <linearGradient id="linear-gradient-17" x1="-2.6" y1="1073.8" x2="2579.5" y2="1073.8" xlink:href="#linear-gradient-3"/>
    <linearGradient id="linear-gradient-18" x1="8" y1="1073.8" x2="2575.2" y2="1073.8" xlink:href="#linear-gradient-3"/>
    <linearGradient id="linear-gradient-19" x1="367.5" y1="1348.1" x2="2424.1" y2="1348.1" xlink:href="#linear-gradient-3"/>
    <linearGradient id="linear-gradient-20" x1="376.8" y1="1348" x2="2422.8" y2="1348" xlink:href="#linear-gradient-3"/>
    <linearGradient id="linear-gradient-21" x1="817.2" y1="1701.5" x2="2296" y2="1701.5" xlink:href="#linear-gradient-3"/>
    <linearGradient id="linear-gradient-22" x1="1921.8" y1="624.3" x2="2055.5" y2="571.8" gradientTransform="matrix(1,0,0,1,0,0)" xlink:href="#linear-gradient-3"/>
    <linearGradient id="linear-gradient-23" x1="-118.9" y1="915.4" x2="2646.3" y2="915.4" xlink:href="#linear-gradient-3"/>
    <linearGradient id="linear-gradient-24" x1="-105.1" y1="915.4" x2="2635.7" y2="915.4" xlink:href="#linear-gradient-3"/>
    <linearGradient id="linear-gradient-25" x1="-74.2" y1="956.1" x2="2433" y2="956.1" xlink:href="#linear-gradient-3"/>
    <linearGradient id="linear-gradient-26" x1="-73.7" y1="956.1" x2="2425" y2="956.1" xlink:href="#linear-gradient-3"/>
    <linearGradient id="linear-gradient-27" x1="8.6" y1="1174.4" x2="1733.3" y2="1174.4" xlink:href="#linear-gradient-3"/>
    <linearGradient id="linear-gradient-28" x1="8.3" y1="1175.2" x2="1720.3" y2="1175.2" xlink:href="#linear-gradient-3"/>
  </defs>
  <text class="cls-19" transform="translate(285 699.6) scale(.9 1)"><tspan x="0" y="0">HUNDRED</tspan></text>
  <text class="cls-6" transform="translate(332.6 828.6) scale(1.6 1)"><tspan x="0" y="0">ZERO TO 100</tspan></text>
  <g>
    <g>
      <path class="cls-1" d="M26,821.1c63.7-173.1,165-341.4,313-479.3C485.7,204.1,679,96.8,898.8,48.1,1117.7-1,1363.2,8.5,1593.5,97.4c229.7,88.2,444.3,255.9,587.7,507.1-8.8,14.1-17.9,28-27.4,41.8-128.7-252.8-332.8-426.8-556.4-521.6C1373.3,29.1,1129.8,12.7,910.5,56.7c-220.1,43.6-416,147.6-565.2,284.1C194.8,477.2,91,646.3,26,821.1c-5.4,7-10.7,14.3-15.9,21.6"/>
      <path class="cls-5" d="M103,772.3c85.7-168.3,215.5-323.3,388.6-432.6,171.7-109.5,386.8-173.4,608.8-163.9,2.2,4.1,4.4,8.2,6.5,12.4-220-14.7-436.3,45-609.7,152.5-175,107.2-307.2,262.1-394.2,431.6-2.8,2.5-5.6,5.1-8.4,7.6"/>
      <g>
        <path class="cls-9" d="M119.5,685.8c-10.1,18.3-19.7,36.7-28.8,55.2,0,.2,0,.4-.1.6-.5,1.9,1.3.4,2.3,0,0,0,0,0,0,0,9.7-19.3,20-38.4,30.8-57.4-1.4.4-2.8,1-4.2,1.6Z"/>
        <path class="cls-17" d="M165.6,609c-12,18.5-23.5,37.2-34.4,56.1,1.5-.5,3.1-1.1,4.7-1.7,11.4-19.1,23.4-38,36-56.5-2.1.7-4.2,1.5-6.3,2.2Z"/>
        <path class="cls-10" d="M229.9,519.9c-17.9,22.5-34.9,45.5-50.9,69,2-.4,4.3-1.1,6.6-1.8,16.6-23.4,34.1-46.3,52.6-68.5-2.7.4-5.5.8-8.3,1.4Z"/>
        <path class="cls-7" d="M386.4,359c-23.1,19.5-45.3,39.7-66.4,60.6,2.7.9,5.6,1.7,9.1,2.1,20.3-19.1,41.4-37.6,63.3-55.4-2.1-2.4-4.2-4.8-5.9-7.4Z"/>
        <path class="cls-11" d="M517.8,273.8c-.9-2.8-2-5.6-2.7-8.5-37.4,23.4-73,48.7-106.7,75.6,1.2,3.2,3.1,6,5.2,8.7,33.5-25.7,68.7-49.7,105.7-71.8-.5-1.3-1-2.7-1.5-4Z"/>
        <path class="cls-16" d="M673.9,195.3c.2-4-.7-8.1-.8-12.4-45.9,19.5-89.9,41.8-131.8,66.5-.8,5.2,1,9.7,2.5,14.1,41.4-23.3,84.7-44.1,129.7-62.2.1-2,.3-4,.4-6Z"/>
        <path class="cls-14" d="M919.9,129.7c-1-6.6-2.7-13.4-3.2-20.1-74.5,13.7-146.4,34.6-214.4,61.4-1.1,3.2,0,6.4,0,9.2.2,3.3,0,6.7-.4,10.2,69.6-25.8,143-44.9,218.6-56.3-.2-1.4-.4-2.9-.7-4.3Z"/>
        <path class="cls-18" d="M1547.8,215.7c6.4-10.7,12.4-21.6,18.9-32.1.6-.9,1.2-1.9,1.7-2.9-109.9-47.6-225-75.5-339.1-85.7-2.3,10.8-4.2,21.9-6.6,32.8-.2.8-.4,1.7-.5,2.5,109,13.9,217.7,45.1,319.8,94.8,1.9-3.1,3.9-6.2,5.7-9.4Z"/>
        <path class="cls-8" d="M1868.4,434.9c11.3-8.6,22.7-17.1,34.2-25.2-91.2-92.8-195.6-164.7-305.8-216.2-4.1,5.8-7.1,13.2-10.4,18.4-5.7,8.9-11.1,18.1-17,27,100.8,52.9,194.6,124.3,274.6,214.1,8.2-6.1,16.5-12,24.4-18.1Z"/>
        <g>
          <path class="cls-3" d="M1926.7,435c-4.7,3.2-9.2,6.7-13.4,9.6-10.8,7.3-21.6,14.7-32.3,22.4-5.1,3.7-10.3,7.3-15.5,10.9,68.8,82.6,126.2,179.5,167.6,289,23.4-26.2,45.5-53.1,66.3-80.7-47.7-95.1-106.3-179.1-172.7-251.3Z"/>
          <path class="cls-4" d="M1926.8,436c-.1.3,0,.4-.3.6-.3.2-.6.4-.9.7-.6.5-1.3.9-1.9,1.4-1.3.9-2.5,1.8-3.8,2.7-2.5,1.8-5.1,3.7-7.7,5.4-5.1,3.5-10.3,7-15.4,10.5-10.2,7.2-20.4,14.4-30.6,21.5,0-.5,0-.9,0-1.4,68.8,82.6,126.3,179.5,167.8,289.2t0,0c-.5-.1-1-.3-1.5-.4,6.1-6.3,11.9-12.7,17.7-19.3,5.8-6.5,11.4-13.2,17-19.9,5.5-6.8,10.9-13.6,16.2-20.4,5.3-6.9,10.4-13.9,15.3-21.1,0,0,0,0,0,0,0,.5,0,.9,0,1.4-47.4-94.9-105.8-178.7-171.9-250.8ZM1926.7,434.1c66.7,72.3,125.7,156.4,173.6,251.8.1.3.3.5.4.8-.2.2-.3.4-.5.6,0,0,0,0,0,0-5.5,6.6-10.9,13.3-16.3,20-5.4,6.8-10.9,13.5-16.4,20.2-5.5,6.8-11.1,13.4-16.7,20.2-5.6,6.7-11.3,13.5-16.9,20.3-.3.4-.6.7-.9,1.1-.2-.5-.4-1-.6-1.6t0,0c-41.4-109.5-98.7-206.3-167.4-288.9-.2-.3-.5-.6-.7-.9.3-.2.5-.4.8-.5,10.2-7.2,20.4-14.4,30.5-21.6,5.1-3.5,10.3-7,15.4-10.6,2.6-1.7,5.1-3.5,7.6-5.4,1.3-.9,2.5-1.8,3.8-2.8.6-.5,1.3-.9,1.9-1.4.3-.2.6-.5,1-.7.4-.3,1-.6,1.6-.8Z"/>
        </g>
        <path class="cls-12" d="M1193.8,116.1c1.5-8.4,2.8-16.8,4.1-25.1-85.7-5.3-170.6-.8-252.5,12.3-.9,8.1,1.1,16.5,2.1,24.7,0,.3,0,.6.1.9,80-10.2,162.2-11.7,244.5-3.6.6-3.1,1.2-6.1,1.7-9.2Z"/>
        <path class="cls-15" d="M302.1,437.7c-19.9,20.6-38.9,41.8-56.9,63.5,3-.5,5.9-.9,8.9-1.2,18.2-20.9,37.3-41.3,57.2-61-3.2-.3-6.3-.7-9.1-1.3Z"/>
        <path class="cls-13" d="M79.3,764.9c-5.5,11.7-10.7,23.5-15.9,35.3,0,.5.1,1.1,0,1.9,0,.7-.1,1.5-.2,2.3,6-13.6,12.2-27.2,18.7-40.7-.9.4-1.8.8-2.7,1.2Z"/>
      </g>
    </g>
    <path class="cls-2" d="M1044.6,409.6c75.7-132,162.6-264.4,261.2-396,0,0,.1,0,.2,0,0-.4,0-.8.3-1.1-.1,0-.2-.1-.3-.2-.5-.4-.8-.8-1.2-1.2-.5,0-.8,0-1,.1,0,0,0,0-.2.1-.4.2-.8.3-1.2.4-.3.2-.6.4-.9.7-140.8,120.5-255.8,247-346.4,372.4-6.7,9.5,8,21.3,32.2,28,24.2,6.7,49.5,5.9,57.4-3.3Z"/>
  </g>
  <circle class="cls-2" cx="988" cy="406" r="78"/>
</svg>